<?xml version="1.0" standalone="no"?>
<!DOCTYPE svg PUBLIC "-//W3C//DTD SVG 20010904//EN"
 "http://www.w3.org/TR/2001/REC-SVG-20010904/DTD/svg10.dtd">
<svg version="1.0" xmlns="http://www.w3.org/2000/svg"
 width="166.000000pt" height="166.000000pt" viewBox="0 0 166.000000 166.000000"
 preserveAspectRatio="xMidYMid meet">
<metadata>
Created by potrace 1.11, written by Peter Selinger 2001-2013
</metadata>
<g transform="translate(0.000000,166.000000) scale(0.100000,-0.100000)"
fill="#000000" stroke="none">
<path d="M722 1477 l-103 -104 -140 -1 c-77 -1 -148 -4 -159 -7 -26 -8 -31
-29 -14 -54 15 -21 18 -21 509 -21 l495 0 2 -351 3 -352 24 -9 c21 -7 36 4
142 109 76 74 119 124 119 138 0 13 -39 59 -104 124 l-104 104 0 116 c0 196 0
189 -24 197 -13 4 -84 7 -159 6 l-136 -1 -104 105 c-64 64 -111 104 -124 104
-13 0 -60 -40 -123 -103z m176 -50 l53 -54 -107 0 -106 -1 53 54 c29 30 54 54
54 54 0 0 24 -24 53 -53z m550 -550 l52 -53 -54 -53 -53 -53 -2 106 c0 58 0
106 2 106 1 0 26 -24 55 -53z"/>
<path d="M206 961 c-71 -71 -116 -124 -116 -136 0 -12 41 -61 104 -124 l104
-104 -1 -149 c0 -138 1 -151 19 -161 11 -6 77 -11 160 -10 l142 1 103 -104
c64 -64 111 -104 124 -104 24 0 245 217 249 246 7 43 1 44 -365 44 l-349 0 0
349 c0 222 -4 352 -10 356 -33 21 -51 10 -164 -104z m91 -137 l0 -105 -54 53
-53 52 52 53 c29 29 53 53 54 53 1 0 2 -48 1 -106z m653 -548 c0 -1 -24 -25
-53 -54 l-53 -52 -52 53 -53 53 106 1 c58 1 105 0 105 -1z"/>
<path d="M517 1032 c-15 -17 -8 -60 10 -63 4 -1 147 -2 317 -3 273 -1 312 1
330 15 19 16 19 17 3 43 l-18 26 -313 0 c-283 -1 -315 -3 -329 -18z"/>
<path d="M538 862 c-14 -5 -38 -31 -38 -43 0 -4 7 -15 16 -23 13 -14 57 -16
329 -16 272 0 316 2 329 16 20 19 20 25 2 50 -14 18 -30 19 -319 19 -168 0
-311 -1 -319 -3z"/>
<path d="M510 660 c-15 -29 4 -60 38 -61 15 0 96 -1 181 -1 163 -1 171 1 171
48 0 12 -7 25 -16 28 -9 3 -94 6 -189 6 -164 0 -175 -1 -185 -20z"/>
</g>
</svg>
